<svg viewBox="0 0 320 140" fill="none" xmlns="http://www.w3.org/2000/svg">
  <path d="M 10 130 C 60 100 120 60 200 50 C 250 44 290 55 310 70" stroke="#8B9E6A" stroke-width="1.8" fill="none" opacity=".55"/>
  <path d="M 80 90 C 72 72 68 55 78 42" stroke="#8B9E6A" stroke-width="1.2" fill="none" opacity=".4"/>
  <path d="M 210 52 C 216 36 222 24 218 14" stroke="#8B9E6A" stroke-width="1.2" fill="none" opacity=".4"/>
  <path d="M 55 108 C 42 98 38 82 48 72 C 54 66 62 68 64 76 C 67 86 62 98 55 108Z" fill="#8B9E6A" opacity=".38"/>
  <path d="M 155 64 C 146 52 146 36 156 30 C 162 26 170 30 170 38 C 170 48 163 58 155 64Z" fill="#8B9E6A" opacity=".35"/>
  <path d="M 265 62 C 258 50 260 34 270 28 C 276 24 284 28 282 36 C 280 46 272 56 265 62Z" fill="#8B9E6A" opacity=".33"/>
  <g transform="translate(78 42)">
    <ellipse cx="0" cy="-13" rx="5" ry="9" fill="#DDB8B3" opacity=".6" transform="rotate(0)"/>
    <ellipse cx="0" cy="-13" rx="5" ry="9" fill="#DDB8B3" opacity=".6" transform="rotate(60)"/>
    <ellipse cx="0" cy="-13" rx="5" ry="9" fill="#DDB8B3" opacity=".6" transform="rotate(120)"/>
    <ellipse cx="0" cy="-13" rx="5" ry="9" fill="#DDB8B3" opacity=".6" transform="rotate(180)"/>
    <ellipse cx="0" cy="-13" rx="5" ry="9" fill="#DDB8B3" opacity=".6" transform="rotate(240)"/>
    <ellipse cx="0" cy="-13" rx="5" ry="9" fill="#DDB8B3" opacity=".6" transform="rotate(300)"/>
    <ellipse cx="0" cy="-10" rx="4" ry="7" fill="#C4877F" opacity=".75" transform="rotate(30)"/>
    <ellipse cx="0" cy="-10" rx="4" ry="7" fill="#C4877F" opacity=".75" transform="rotate(90)"/>
    <ellipse cx="0" cy="-10" rx="4" ry="7" fill="#C4877F" opacity=".75" transform="rotate(150)"/>
    <ellipse cx="0" cy="-10" rx="4" ry="7" fill="#C4877F" opacity=".75" transform="rotate(210)"/>
    <ellipse cx="0" cy="-10" rx="4" ry="7" fill="#C4877F" opacity=".75" transform="rotate(270)"/>
    <ellipse cx="0" cy="-10" rx="4" ry="7" fill="#C4877F" opacity=".75" transform="rotate(330)"/>
    <circle cx="0" cy="0" r="6" fill="#C4A060" opacity=".9"/>
    <circle cx="0" cy="0" r="3.5" fill="#A8655E"/>
  </g>
  <g transform="translate(200 50)">
    <ellipse cx="0" cy="-16" rx="4" ry="10" fill="#EDE0D4" opacity=".75" transform="rotate(0)"/>
    <ellipse cx="0" cy="-16" rx="4" ry="10" fill="#EDE0D4" opacity=".75" transform="rotate(30)"/>
    <ellipse cx="0" cy="-16" rx="4" ry="10" fill="#EDE0D4" opacity=".75" transform="rotate(60)"/>
    <ellipse cx="0" cy="-16" rx="4" ry="10" fill="#EDE0D4" opacity=".75" transform="rotate(90)"/>
    <ellipse cx="0" cy="-16" rx="4" ry="10" fill="#EDE0D4" opacity=".75" transform="rotate(120)"/>
    <ellipse cx="0" cy="-16" rx="4" ry="10" fill="#EDE0D4" opacity=".75" transform="rotate(150)"/>
    <ellipse cx="0" cy="-16" rx="4" ry="10" fill="#EDE0D4" opacity=".75" transform="rotate(180)"/>
    <ellipse cx="0" cy="-16" rx="4" ry="10" fill="#EDE0D4" opacity=".75" transform="rotate(210)"/>
    <ellipse cx="0" cy="-16" rx="4" ry="10" fill="#EDE0D4" opacity=".75" transform="rotate(240)"/>
    <ellipse cx="0" cy="-16" rx="4" ry="10" fill="#EDE0D4" opacity=".75" transform="rotate(270)"/>
    <ellipse cx="0" cy="-16" rx="4" ry="10" fill="#EDE0D4" opacity=".75" transform="rotate(300)"/>
    <ellipse cx="0" cy="-16" rx="4" ry="10" fill="#EDE0D4" opacity=".75" transform="rotate(330)"/>
    <circle cx="0" cy="0" r="8" fill="#C4877F" opacity=".85"/>
    <circle cx="0" cy="0" r="5" fill="#C4A060"/>
    <circle cx="0" cy="0" r="3" fill="#A8655E"/>
  </g>
  <g transform="translate(218 14)">
    <path d="M 0 0 C -7 -3 -9 -20 0 -30 C 9 -20 7 -3 0 0Z" fill="#EDD5CE" opacity=".6" transform="rotate(0)"/>
    <path d="M 0 0 C -7 -3 -9 -20 0 -30 C 9 -20 7 -3 0 0Z" fill="#EDD5CE" opacity=".6" transform="rotate(60)"/>
    <path d="M 0 0 C -7 -3 -9 -20 0 -30 C 9 -20 7 -3 0 0Z" fill="#EDD5CE" opacity=".6" transform="rotate(120)"/>
    <path d="M 0 0 C -7 -3 -9 -20 0 -30 C 9 -20 7 -3 0 0Z" fill="#EDD5CE" opacity=".6" transform="rotate(180)"/>
    <path d="M 0 0 C -7 -3 -9 -20 0 -30 C 9 -20 7 -3 0 0Z" fill="#EDD5CE" opacity=".6" transform="rotate(240)"/>
    <path d="M 0 0 C -7 -3 -9 -20 0 -30 C 9 -20 7 -3 0 0Z" fill="#EDD5CE" opacity=".6" transform="rotate(300)"/>
    <path d="M 0 0 C -5 -2 -6 -16 0 -22 C 6 -16 5 -2 0 0Z" fill="#D4A095" opacity=".78" transform="rotate(30)"/>
    <path d="M 0 0 C -5 -2 -6 -16 0 -22 C 6 -16 5 -2 0 0Z" fill="#D4A095" opacity=".78" transform="rotate(90)"/>
    <path d="M 0 0 C -5 -2 -6 -16 0 -22 C 6 -16 5 -2 0 0Z" fill="#D4A095" opacity=".78" transform="rotate(150)"/>
    <path d="M 0 0 C -5 -2 -6 -16 0 -22 C 6 -16 5 -2 0 0Z" fill="#D4A095" opacity=".78" transform="rotate(210)"/>
    <path d="M 0 0 C -5 -2 -6 -16 0 -22 C 6 -16 5 -2 0 0Z" fill="#D4A095" opacity=".78" transform="rotate(270)"/>
    <path d="M 0 0 C -5 -2 -6 -16 0 -22 C 6 -16 5 -2 0 0Z" fill="#D4A095" opacity=".78" transform="rotate(330)"/>
    <ellipse cx="0" cy="-3" rx="3" ry="8" fill="#C4A060" opacity=".88"/>
    <ellipse cx="0" cy="-3" rx="2" ry="6" fill="#A8655E"/>
    <circle cx="0" cy="-8" r="3" fill="#C4877F" opacity=".9"/>
  </g>
</svg>
