<svg viewBox="0 0 440 520" fill="none" xmlns="http://www.w3.org/2000/svg">
  <!-- Background atmosphere — lighter, airier than hero -->
  <ellipse cx="80"  cy="160" rx="210" ry="190" fill="#ECD6CA" opacity="0.32"/>
  <ellipse cx="370" cy="390" rx="190" ry="170" fill="#E2C4AD" opacity="0.22"/>

  <!-- Arching branch — main structure -->
  <path d="M 80 460 C 100 400 130 340 175 290 C 210 250 250 230 260 200" stroke="#C4A060" stroke-width="2" fill="none" opacity="0.38"/>
  <path d="M 260 200 C 270 175 290 160 310 138" stroke="#C4A060" stroke-width="1.5" fill="none" opacity="0.32"/>

  <!-- Side branches left -->
  <path d="M 175 290 C 155 275 135 265 118 258" stroke="#C4A060" stroke-width="1.2" fill="none" opacity="0.28"/>
  <path d="M 155 330 C 128 318 108 308 88 302" stroke="#C4A060" stroke-width="1.2" fill="none" opacity="0.25"/>
  <path d="M 210 255 C 188 240 168 228 145 220" stroke="#C4A060" stroke-width="1.2" fill="none" opacity="0.28"/>

  <!-- Side branches right -->
  <path d="M 240 218 C 262 205 280 196 302 190" stroke="#C4A060" stroke-width="1.2" fill="none" opacity="0.28"/>
  <path d="M 270 176 C 292 162 312 155 335 148" stroke="#C4A060" stroke-width="1.2" fill="none" opacity="0.25"/>

  <!-- Leaves on left branches -->
  <path d="M 118 258 C 100 244 92 224 102 206 C 108 196 118 193 126 200 C 136 210 136 233 128 252 C 124 262 120 261 118 258Z" fill="#8B9E6A" opacity="0.45"/>
  <path d="M 118 258 C 115 235 112 210 116 204" stroke="#6A8E58" stroke-width="1" fill="none" opacity="0.28"/>

  <path d="M 88 302 C 68 290 59 268 70 250 C 76 240 87 237 96 244 C 107 254 106 276 98 293 C 94 303 90 304 88 302Z" fill="#8B9E6A" opacity="0.42"/>
  <path d="M 88 302 C 84 278 81 254 85 248" stroke="#6A8E58" stroke-width="1" fill="none" opacity="0.28"/>

  <path d="M 145 220 C 126 208 116 186 126 168 C 132 158 143 155 152 162 C 163 173 162 195 153 212 C 149 222 146 222 145 220Z" fill="#A4B594" opacity="0.4"/>

  <!-- Leaves on right branches -->
  <path d="M 302 190 C 322 177 336 156 325 138 C 318 128 306 126 298 132 C 286 143 287 165 295 182 C 299 191 301 192 302 190Z" fill="#8B9E6A" opacity="0.42"/>
  <path d="M 302 190 C 308 168 312 144 308 130" stroke="#6A8E58" stroke-width="1" fill="none" opacity="0.28"/>

  <path d="M 335 148 C 355 136 369 115 358 97 C 351 87 339 85 331 91 C 319 102 320 124 328 141 C 332 150 334 150 335 148Z" fill="#A4B594" opacity="0.38"/>

  <!-- Small rose — mid branch -->
  <g transform="translate(260 200)">
    <g transform="rotate(0)">  <path d="M 0 0 C -20 -7 -23 -42 0 -61 C 23 -42 20 -7 0 0Z" fill="#E0BAB6" opacity="0.55"/></g>
    <g transform="rotate(60)"> <path d="M 0 0 C -20 -7 -23 -42 0 -61 C 23 -42 20 -7 0 0Z" fill="#E0BAB6" opacity="0.55"/></g>
    <g transform="rotate(120)"><path d="M 0 0 C -20 -7 -23 -42 0 -61 C 23 -42 20 -7 0 0Z" fill="#E0BAB6" opacity="0.55"/></g>
    <g transform="rotate(180)"><path d="M 0 0 C -20 -7 -23 -42 0 -61 C 23 -42 20 -7 0 0Z" fill="#E0BAB6" opacity="0.55"/></g>
    <g transform="rotate(240)"><path d="M 0 0 C -20 -7 -23 -42 0 -61 C 23 -42 20 -7 0 0Z" fill="#E0BAB6" opacity="0.55"/></g>
    <g transform="rotate(300)"><path d="M 0 0 C -20 -7 -23 -42 0 -61 C 23 -42 20 -7 0 0Z" fill="#E0BAB6" opacity="0.55"/></g>
    <!-- Middle layer -->
    <g transform="rotate(30)"> <path d="M 0 0 C -15 -5 -17 -32 0 -46 C 17 -32 15 -5 0 0Z" fill="#CB9993" opacity="0.72"/></g>
    <g transform="rotate(90)"> <path d="M 0 0 C -15 -5 -17 -32 0 -46 C 17 -32 15 -5 0 0Z" fill="#CB9993" opacity="0.72"/></g>
    <g transform="rotate(150)"><path d="M 0 0 C -15 -5 -17 -32 0 -46 C 17 -32 15 -5 0 0Z" fill="#CB9993" opacity="0.72"/></g>
    <g transform="rotate(210)"><path d="M 0 0 C -15 -5 -17 -32 0 -46 C 17 -32 15 -5 0 0Z" fill="#CB9993" opacity="0.72"/></g>
    <g transform="rotate(270)"><path d="M 0 0 C -15 -5 -17 -32 0 -46 C 17 -32 15 -5 0 0Z" fill="#CB9993" opacity="0.72"/></g>
    <g transform="rotate(330)"><path d="M 0 0 C -15 -5 -17 -32 0 -46 C 17 -32 15 -5 0 0Z" fill="#CB9993" opacity="0.72"/></g>
    <!-- Centre -->
    <circle cx="0" cy="0" r="14" fill="#C4A060" opacity="0.9"/>
    <circle cx="0" cy="0" r="8"  fill="#A8655E"/>
  </g>

  <!-- Small bud on right branch end -->
  <path d="M 310 138 C 303 124 298 114 310 104 C 322 114 318 127 310 138Z" fill="#DDB8B3" opacity="0.55"/>

  <!-- Tiny bud near top -->
  <path d="M 370 100 C 363 87 358 77 370 67 C 382 77 378 90 370 100Z" fill="#DDB8B3" opacity="0.45"/>

  <!-- Scattered dots -->
  <circle cx="340" cy="310" r="3.5" fill="#DDB8B3" opacity="0.3"/>
  <circle cx="360" cy="288" r="2"   fill="#C4877F" opacity="0.25"/>
  <circle cx="400" cy="330" r="2.5" fill="#C4A060" opacity="0.2"/>
  <circle cx="70"  cy="390" r="3"   fill="#DDB8B3" opacity="0.28"/>
  <circle cx="48"  cy="415" r="2"   fill="#C4877F" opacity="0.22"/>
  <circle cx="420" cy="195" r="2"   fill="#DDB8B3" opacity="0.25"/>
  <circle cx="395" cy="170" r="3"   fill="#C4877F" opacity="0.2"/>
  <circle cx="42"  cy="210" r="2"   fill="#C4A060" opacity="0.22"/>
</svg>
